<?xml version="1.0" encoding="utf-8"?>
<!-- Generator: Adobe Illustrator 24.3.0, SVG Export Plug-In . SVG Version: 6.00 Build 0)  -->
<svg version="1.1" id="Слой_1" xmlns="http://www.w3.org/2000/svg" xmlns:xlink="http://www.w3.org/1999/xlink" x="0px" y="0px"
	 viewBox="0 0 493.1 289.1" style="enable-background:new 0 0 493.1 289.1;" xml:space="preserve">
<style type="text/css">
	.st0{fill:#879E27;}
	.st1{fill:#FFD337;}
	.st2{fill:#E5221F;}
	.st3{fill:#ED6F1B;}
	.st4{fill:#231F20;}
</style>
<g>
	<g>
		<polygon class="st0" points="177.3,195.8 177.3,195.8 177.3,195.8 		"/>
		<path class="st0" d="M176.9,196.1c0.1-0.1,0.2-0.2,0.3-0.3C177.1,195.9,177,196,176.9,196.1C176.9,196.1,176.9,196.1,176.9,196.1z
			"/>
		<path class="st0" d="M176.3,196.4c-0.1,0-0.1,0-0.2,0.1C176.2,196.5,176.3,196.5,176.3,196.4z"/>
		<path class="st0" d="M177.3,195.8L177.3,195.8L177.3,195.8C177.3,195.7,177.3,195.7,177.3,195.8c0.1-0.1,0.2-0.3,0.3-0.4
			c0,0,0,0,0,0c0.1-0.1,0.2-0.3,0.2-0.5c0-0.1,0-0.2,0.1-0.2c0-0.1,0.1-0.2,0.1-0.3c0-0.2,0-0.4,0-0.5c0-0.7-0.3-1.3-0.8-1.7
			l-0.2-0.2l-2.3-2.1l-34.5-30.8v0l-15-13.4l-40.7,45.5L48,158.5v0l-4.8-4.3L0.7,201.7l-0.1,0.1C0.2,202.4,0,203,0,203.7
			c0,0.7,0.3,1.3,0.8,1.7l0.3,0.3l2.7,2.4l36.5,32.5l0,0l15,13.4l41.6-46.6l34.2,30.5l-40.7,45.6c-0.6,0.6-1,1.5-0.9,2.5
			c0.1,1.8,1.6,3.1,3.4,3c0.8,0,1.6-0.4,2.1-1l0,0L177.3,195.8C177.3,195.8,177.3,195.8,177.3,195.8L177.3,195.8L177.3,195.8z
			 M44.5,235.8L8,203.3l37.3-41.7l36.5,32.5L44.5,235.8z M133.6,235l-34.2-30.5l36.3-40.7l34.2,30.5L133.6,235z M176.9,196.1
			C176.9,196.1,176.9,196.1,176.9,196.1c0.1-0.1,0.2-0.2,0.3-0.3C177.1,195.9,177.1,196,176.9,196.1z M176.2,196.5
			c0.1,0,0.1,0,0.2-0.1C176.3,196.5,176.2,196.5,176.2,196.5z"/>
	</g>
</g>
<g>
	<g>
		<polygon class="st1" points="62,34.2 62,34.2 62,34.2 		"/>
		<path class="st1" d="M62.3,34.5c-0.1-0.1-0.2-0.2-0.2-0.3C62.1,34.3,62.2,34.4,62.3,34.5C62.3,34.5,62.3,34.5,62.3,34.5z"/>
		<path class="st1" d="M62.6,35.2c0,0.1,0,0.1,0,0.2C62.6,35.3,62.6,35.3,62.6,35.2z"/>
		<path class="st1" d="M62,34.2L62,34.2L62,34.2C62,34.2,62,34.2,62,34.2c-0.1-0.1-0.2-0.2-0.4-0.4c0,0,0,0,0,0
			c-0.1-0.1-0.3-0.2-0.4-0.3c-0.1,0-0.2-0.1-0.2-0.1c-0.1,0-0.2-0.1-0.3-0.1c-0.2,0-0.4-0.1-0.5-0.1c-0.7,0-1.3,0.2-1.8,0.6L58.1,34
			l-2.3,2L20.9,66.5v0L5.7,79.8l40.2,46L9.1,157.9h0l-4.9,4.3l41.9,48l0.1,0.1c0.5,0.5,1.1,0.8,1.8,0.9c0.7,0,1.3-0.2,1.8-0.6
			l0.3-0.3l2.7-2.4l36.8-32.2l0,0l15.1-13.2l-41.1-47l34.5-30.1l40.2,46c0.5,0.7,1.4,1.2,2.3,1.2c1.8,0.1,3.3-1.2,3.4-3
			c0.1-0.8-0.2-1.6-0.7-2.2l0,0L62,34.2C62,34.2,62,34.2,62,34.2L62,34.2L62,34.2z M85.4,170.9L48.6,203l-36.8-42.1l36.8-32.2
			L85.4,170.9z M95.5,82.3L61,112.5L25.1,71.4l34.5-30.1L95.5,82.3z M62.3,34.5C62.3,34.5,62.3,34.5,62.3,34.5
			c-0.1-0.1-0.1-0.2-0.2-0.3C62.1,34.3,62.2,34.4,62.3,34.5z M62.6,35.4c0-0.1,0-0.1,0-0.2C62.6,35.3,62.6,35.3,62.6,35.4z"/>
	</g>
</g>
<g>
	<g>
		<polygon class="st2" points="55,94.6 55,94.6 55,94.6 		"/>
		<path class="st2" d="M55.3,94.3c-0.1,0.1-0.2,0.2-0.3,0.3C55.1,94.5,55.2,94.4,55.3,94.3C55.3,94.3,55.3,94.3,55.3,94.3z"/>
		<path class="st2" d="M55.9,93.9c0.1,0,0.1,0,0.2-0.1C56.1,93.9,56,93.9,55.9,93.9z"/>
		<path class="st2" d="M55,94.6L55,94.6L55,94.6C55,94.6,55,94.6,55,94.6c-0.1,0.1-0.2,0.3-0.3,0.4c0,0,0,0,0,0
			c-0.1,0.1-0.2,0.3-0.2,0.5c0,0.1,0,0.2-0.1,0.2c0,0.1,0,0.2-0.1,0.3c0,0.2,0,0.4,0,0.5c0.1,0.7,0.4,1.3,0.8,1.7l0.2,0.2l2.4,2
			l35,30.3v0l15.2,13.2l40-46.1l36.9,32l0,0l4.9,4.2L231.4,86l0.1-0.1c0.4-0.5,0.7-1.2,0.6-1.9c0-0.7-0.4-1.3-0.8-1.7L231,82
			l-2.7-2.3l-36.9-32l0,0l-15.2-13.2l-40.9,47.2l-34.6-30l40-46.2c0.6-0.6,1-1.5,0.9-2.5c-0.1-1.8-1.7-3.1-3.5-3
			c-0.8,0.1-1.6,0.4-2.1,1l0,0L55,94.6C55,94.6,55,94.6,55,94.6L55,94.6L55,94.6z M187.2,52.6l36.9,32l-36.6,42.3l-36.9-32
			L187.2,52.6z M98.1,54.7l34.6,30L97,126L62.3,96L98.1,54.7z M55.3,94.3C55.3,94.3,55.3,94.3,55.3,94.3c-0.1,0.1-0.2,0.2-0.3,0.3
			C55.1,94.5,55.2,94.4,55.3,94.3z M56.1,93.9c-0.1,0-0.1,0-0.2,0.1C56,93.9,56.1,93.9,56.1,93.9z"/>
	</g>
</g>
<g>
	<g>
		<polygon class="st3" points="169.3,255 169.3,255 169.3,255 		"/>
		<path class="st3" d="M169.1,254.6c0.1,0.1,0.1,0.2,0.2,0.3C169.2,254.8,169.1,254.7,169.1,254.6
			C169.1,254.6,169.1,254.6,169.1,254.6z"/>
		<path class="st3" d="M168.8,253.9c0-0.1,0-0.1,0-0.2C168.8,253.8,168.8,253.9,168.8,253.9z"/>
		<path class="st3" d="M169.3,255L169.3,255L169.3,255C169.3,255,169.3,255,169.3,255c0.1,0.1,0.2,0.3,0.4,0.4c0,0,0,0,0,0
			c0.1,0.1,0.3,0.2,0.4,0.3c0.1,0,0.2,0.1,0.2,0.1c0.1,0,0.2,0.1,0.3,0.1c0.2,0,0.4,0.1,0.5,0.1c0.7,0.1,1.3-0.2,1.8-0.6l0.2-0.2
			l2.4-2l35.1-30.2v0l15.2-13.1L186,163.5l37-31.9h0l4.9-4.2l-41.6-48.2l-0.1-0.1c-0.5-0.5-1.1-0.8-1.8-0.9
			c-0.7-0.1-1.3,0.2-1.8,0.5l-0.3,0.2l-2.7,2.3l-37,31.9v0l-15.2,13.1l40.8,47.3l-34.7,29.9l-39.9-46.3c-0.5-0.7-1.4-1.2-2.3-1.3
			c-1.8-0.1-3.3,1.2-3.5,3c-0.1,0.8,0.2,1.6,0.7,2.2l0,0L169.3,255C169.3,255,169.3,255,169.3,255L169.3,255L169.3,255z
			 M146.8,118.1l37-31.9l36.5,42.4l-37,31.9L146.8,118.1z M136.1,206.6l34.7-29.9l35.6,41.3l-34.7,29.9L136.1,206.6z M169.1,254.6
			C169.1,254.6,169.1,254.6,169.1,254.6c0.1,0.1,0.1,0.2,0.2,0.3C169.2,254.8,169.1,254.7,169.1,254.6z M168.7,253.8
			c0,0.1,0,0.1,0,0.2C168.8,253.9,168.8,253.8,168.7,253.8z"/>
	</g>
</g>
<path d="M280.5,242.3c-1-0.7-2.1-1.3-3.3-1.6c-1.3-0.4-2.7-0.6-4.1-0.6h-0.3v-2.3h-1.8v2.3h-0.3c-1.5,0-2.8,0.2-4.1,0.6
	c-1.3,0.4-2.4,0.9-3.3,1.6c-0.9,0.7-1.7,1.6-2.2,2.7c-0.5,1.1-0.8,2.3-0.8,3.7c0,1.4,0.3,2.6,0.8,3.7c0.5,1.1,1.3,2,2.2,2.7
	c1,0.7,2.1,1.3,3.4,1.7c1.3,0.4,2.6,0.6,4.1,0.6h0.3v2.3h1.8v-2.3h0.3c1.4,0,2.8-0.2,4.1-0.6c1.3-0.4,2.4-0.9,3.3-1.6
	c1-0.7,1.7-1.6,2.2-2.7c0.5-1.1,0.8-2.3,0.8-3.7c0-1.4-0.3-2.6-0.8-3.7C282.2,243.9,281.4,243,280.5,242.3z M270.8,255.7h-0.3
	c-1.2,0-2.3-0.1-3.3-0.4c-1-0.3-2-0.7-2.8-1.2c-0.8-0.6-1.4-1.3-1.9-2.2c-0.4-0.9-0.7-1.9-0.7-3.1c0-1.2,0.2-2.2,0.7-3.1
	c0.4-0.9,1.1-1.6,1.9-2.2c0.8-0.6,1.7-1,2.7-1.2c1-0.3,2.1-0.4,3.3-0.4h0.3V255.7z M280.5,252.6c-0.8,1-1.8,1.8-3.1,2.3
	c-1.3,0.5-2.7,0.7-4.4,0.7h-0.3v-13.9h0.3c1.6,0,3.1,0.2,4.4,0.7c1.3,0.5,2.4,1.3,3.1,2.3c0.8,1,1.2,2.4,1.2,3.9
	C281.7,250.3,281.3,251.6,280.5,252.6z"/>
<path d="M295.4,246.5c-0.8-0.4-1.6-0.6-2.5-0.6c-1.3,0-2.4,0.3-3.4,1c-1,0.6-1.7,1.5-2.3,2.6c-0.5,1.1-0.8,2.3-0.8,3.6
	c0,0.9,0.2,1.8,0.5,2.7c0.3,0.9,0.7,1.6,1.3,2.3c0.6,0.6,1.2,1.2,2,1.5c0.8,0.4,1.7,0.6,2.6,0.6c1.9,0,3.4-0.7,4.6-2.2l0.1-0.1h0.5
	l0.1,0.3v1.6h1.7v-13.4h-1.7v2h-0.5l-0.2-0.1C296.9,247.4,296.2,246.8,295.4,246.5z M297.6,250.1c0.4,0.8,0.6,1.7,0.6,2.7
	c0,1.6-0.4,2.9-1.3,4c-0.9,1.1-2.1,1.7-3.7,1.7c-1,0-1.9-0.3-2.7-0.8c-0.7-0.5-1.3-1.2-1.7-2.1c-0.4-0.9-0.6-1.8-0.6-2.8
	c0-0.9,0.2-1.8,0.6-2.6c0.4-0.8,1-1.5,1.7-2c0.8-0.5,1.6-0.8,2.6-0.8c1,0,1.9,0.2,2.7,0.7C296.6,248.6,297.2,249.3,297.6,250.1z"/>
<path d="M316.3,248c-0.6-0.6-1.4-1.2-2.2-1.5c-1.4-0.6-3.1-0.8-4.7-0.3c-0.6,0.2-1.2,0.4-1.7,0.7c-0.5,0.3-1,0.6-1.3,1l-0.1,0.1
	h-0.5l-0.1-0.3c0-0.6,0.2-1.4,0.6-2.2c0.4-0.8,1.1-1.6,2-2.3c0.9-0.7,2.1-1.1,3.5-1.4c2.5-0.4,4.1-0.8,4.8-1.3
	c0.6-0.4,0.8-0.6,0.9-0.7l-0.9-0.9c-0.5,0.5-1.9,0.9-5.1,1.4c-1.7,0.3-3.1,0.8-4.1,1.5c-1,0.7-1.7,1.6-2.2,2.6
	c-0.5,1-0.8,2.2-0.9,3.4c-0.1,1.2-0.2,2.8-0.2,4.6c0,1.3,0.3,2.6,0.8,3.8c0.5,1.2,1.3,2.1,2.5,2.9c1.1,0.7,2.5,1.1,4.2,1.1
	c1.4,0,2.6-0.3,3.6-1c1-0.6,1.8-1.5,2.3-2.6c0.5-1.1,0.8-2.3,0.8-3.6c0-0.9-0.2-1.8-0.5-2.7C317.4,249.4,316.9,248.6,316.3,248z
	 M315.9,255.8c-0.4,0.8-1,1.5-1.8,2c-0.8,0.5-1.7,0.8-2.8,0.8c-1.1,0-2.1-0.2-2.9-0.7c-0.8-0.5-1.4-1.1-1.9-2
	c-0.4-0.8-0.6-1.7-0.6-2.7c0-1,0.2-2,0.6-2.8c0.4-0.9,1-1.6,1.8-2.1c0.8-0.5,1.8-0.8,2.9-0.8c1.1,0,2.1,0.3,2.9,0.8
	c0.8,0.5,1.4,1.2,1.8,2.1c0.4,0.9,0.6,1.8,0.6,2.8C316.5,254.1,316.3,254.9,315.9,255.8z"/>
<path d="M333.8,248c-0.6-0.7-1.2-1.2-2-1.6c-1.6-0.7-3.6-0.8-5.2,0c-0.8,0.4-1.5,1-2,1.7l-0.1,0.1h-0.5l-0.1-0.3v-1.7h-1.7v21.3h1.7
	v-9.9h0.5l0.2,0.1c0.5,0.7,1.2,1.3,2,1.6c0.8,0.4,1.7,0.6,2.6,0.6c1.3,0,2.4-0.3,3.4-0.9s1.7-1.5,2.2-2.6c0.5-1.1,0.8-2.3,0.8-3.6
	c0-0.9-0.2-1.9-0.5-2.7C334.8,249.4,334.3,248.7,333.8,248z M332.4,256.9c-0.9,1.1-2.1,1.7-3.7,1.7c-1.5,0-2.8-0.6-3.7-1.7
	c-0.9-1.1-1.3-2.5-1.3-4c0-0.9,0.2-1.8,0.6-2.6c0.4-0.8,1-1.5,1.7-2c0.8-0.5,1.6-0.8,2.6-0.8c1.5,0,2.8,0.5,3.7,1.6
	c0.9,1,1.4,2.3,1.4,3.9C333.7,254.4,333.3,255.8,332.4,256.9z"/>
<polygon points="341.1,246.3 339.4,246.3 339.4,260 348.6,250 348.6,259.7 350.3,259.7 350.3,245.9 341.1,255.9 "/>
<polygon points="364.8,246.3 362.5,246.3 356.9,252 356.9,246.3 355.2,246.3 355.2,259.7 356.9,259.7 356.9,254.1 357.9,253.1 
	363.7,259.7 366,259.7 359.1,251.9 "/>
<path d="M376.9,246.5c-0.8-0.4-1.6-0.6-2.5-0.6c-1.3,0-2.4,0.3-3.4,1c-1,0.6-1.7,1.5-2.3,2.6c-0.5,1.1-0.8,2.3-0.8,3.6
	c0,0.9,0.2,1.8,0.5,2.7c0.3,0.9,0.7,1.6,1.3,2.3c0.6,0.6,1.2,1.2,2,1.5c0.8,0.4,1.7,0.6,2.6,0.6c1.9,0,3.4-0.7,4.6-2.2l0.1-0.1h0.5
	l0.1,0.3v1.6h1.7v-13.4h-1.7v2h-0.5l-0.2-0.1C378.3,247.4,377.7,246.9,376.9,246.5z M379.1,250.1c0.4,0.8,0.6,1.7,0.6,2.7
	c0,1.6-0.4,2.9-1.3,4c-0.9,1.1-2.1,1.7-3.7,1.7c-1,0-1.9-0.3-2.7-0.8c-0.7-0.5-1.3-1.2-1.7-2.1c-0.4-0.9-0.6-1.8-0.6-2.8
	c0-0.9,0.2-1.8,0.6-2.6c0.4-0.8,1-1.5,1.7-2c0.8-0.5,1.6-0.8,2.6-0.8c1,0,1.9,0.2,2.7,0.7C378.1,248.6,378.7,249.3,379.1,250.1z"/>
<polygon points="408.1,256.7 402.8,245.9 399.8,259.7 401.4,259.7 403.3,250.6 408,260.2 412.7,250.6 414.6,259.7 416.4,259.7 
	413.4,245.9 "/>
<path d="M428.7,246.8c-0.9-0.6-2.1-1-3.4-1c-1.3,0-2.5,0.3-3.5,1c-1,0.6-1.7,1.5-2.2,2.6c-0.5,1.1-0.8,2.4-0.8,3.7
	c0,1.3,0.3,2.5,0.8,3.5c0.5,1,1.3,1.9,2.3,2.5c1,0.6,2.1,0.9,3.4,0.9c1.4,0,2.6-0.3,3.6-1c1-0.6,1.8-1.4,2.4-2.5l-1.5-0.8
	c-1.1,1.8-2.6,2.8-4.4,2.8c-0.9,0-1.8-0.2-2.5-0.7c-0.8-0.4-1.3-1.1-1.8-1.8c-0.4-0.8-0.6-1.6-0.6-2.5l0-0.3h11.1
	c0-1.3-0.3-2.5-0.7-3.6C430.4,248.4,429.7,247.5,428.7,246.8z M420.7,251.8l0.1-0.4c0.2-1.1,0.7-2,1.6-2.8c0.9-0.8,1.9-1.2,3-1.2
	c0.7,0,1.4,0.2,2.1,0.5c0.6,0.4,1.2,0.8,1.6,1.5c0.4,0.6,0.7,1.3,0.8,2l0.1,0.4H420.7z"/>
<path d="M447.1,248c-0.6-0.6-1.4-1.2-2.2-1.5c-1.4-0.6-3.1-0.8-4.7-0.3c-0.6,0.2-1.2,0.4-1.7,0.7c-0.5,0.3-1,0.6-1.3,1L437,248h-0.5
	l-0.1-0.3c0-0.6,0.2-1.4,0.6-2.2c0.4-0.8,1.1-1.6,2-2.3c0.9-0.7,2.1-1.1,3.5-1.4c2.5-0.4,4.1-0.8,4.8-1.3c0.6-0.4,0.8-0.6,0.9-0.7
	l-0.9-0.9c-0.5,0.5-1.9,0.9-5.1,1.4c-1.7,0.3-3.1,0.8-4.1,1.5c-1,0.7-1.7,1.6-2.2,2.6c-0.5,1-0.8,2.2-0.9,3.4
	c-0.1,1.2-0.2,2.8-0.2,4.6c0,1.3,0.3,2.6,0.8,3.8c0.5,1.2,1.3,2.1,2.5,2.9c1.1,0.7,2.5,1.1,4.2,1.1c1.4,0,2.6-0.3,3.6-1
	c1-0.6,1.8-1.5,2.4-2.6c0.5-1.1,0.8-2.3,0.8-3.6c0-0.9-0.2-1.8-0.5-2.7C448.2,249.4,447.7,248.6,447.1,248z M446.6,255.8
	c-0.4,0.8-1,1.5-1.8,2c-0.8,0.5-1.7,0.8-2.8,0.8c-1.1,0-2.1-0.2-2.9-0.7c-0.8-0.5-1.4-1.1-1.9-2c-0.4-0.8-0.6-1.7-0.6-2.7
	c0-1,0.2-2,0.6-2.8c0.4-0.9,1-1.6,1.8-2.1c0.8-0.5,1.8-0.8,2.9-0.8c1.1,0,2.1,0.3,2.9,0.8c0.8,0.5,1.4,1.2,1.8,2.1
	c0.4,0.9,0.6,1.8,0.6,2.8C447.2,254.1,447,254.9,446.6,255.8z"/>
<path d="M461.7,246.8c-0.9-0.6-2.1-1-3.4-1c-1.3,0-2.5,0.3-3.5,1c-1,0.6-1.7,1.5-2.2,2.6c-0.5,1.1-0.8,2.4-0.8,3.7
	c0,1.3,0.3,2.5,0.8,3.5c0.5,1,1.3,1.9,2.3,2.5c1,0.6,2.1,0.9,3.4,0.9c1.4,0,2.6-0.3,3.6-1c1-0.6,1.8-1.4,2.4-2.5l-1.5-0.8
	c-1.1,1.8-2.6,2.8-4.4,2.8c-0.9,0-1.8-0.2-2.5-0.7c-0.8-0.4-1.3-1.1-1.8-1.8c-0.4-0.8-0.6-1.6-0.6-2.5l0-0.3h11.1
	c0-1.3-0.3-2.5-0.7-3.6C463.4,248.4,462.6,247.5,461.7,246.8z M453.6,251.8l0.1-0.4c0.2-1.1,0.7-2,1.6-2.8c0.9-0.8,1.9-1.2,3-1.2
	c0.7,0,1.4,0.2,2.1,0.5c0.6,0.3,1.2,0.8,1.6,1.5c0.4,0.6,0.7,1.3,0.8,2l0.1,0.4H453.6z"/>
<path d="M467.3,259.9c0.7,0,1.2-0.2,1.6-0.6c0.5-0.4,0.8-1,1-1.9c0.2-0.9,0.4-2.1,0.4-3.4c0.1-1.3,0.1-3.3,0.1-5.8v-0.3h5.1v11.9
	h1.7v-13.4h-8.4c0,2.9,0,4.9,0,6.1c0,1.3-0.1,2.5-0.2,3.3c-0.1,0.9-0.3,1.6-0.7,2c-0.3,0.3-0.6,0.5-1,0.6L467.3,259.9z"/>
<polygon points="483.8,246.3 482.1,246.3 482.1,260 491.4,250 491.4,259.7 493.1,259.7 493.1,245.9 483.8,255.9 "/>
<g>
	<path class="st4" d="M294.1,39.5h6.7l-21,20.8l21.7,23.9h-6.9l-18.3-20.5l-5.1,1.2v19.3h-5.8V39.5h5.8v19.1L294.1,39.5z"/>
	<path class="st4" d="M304.9,39.5h5.9L326,68.2l12.3-28.7h5.5l-19.7,44.7h-5.4l4.6-10.1L304.9,39.5z"/>
	<path class="st4" d="M349,39.5h5.7l9.1,16.8l9.1-16.8h5.7L366.5,61l13.2,23.1h-5.7l-10.3-18.4l-10.3,18.4h-5.7L361.1,61L349,39.5z"
		/>
	<path class="st4" d="M420.6,57.6V39.5h5v44.7h-5V62.2l-26.2,0.1v21.9l-6.1-0.1V39.5l6.1,0.1v18.1L420.6,57.6z"/>
	<path class="st4" d="M474.1,84.1h-5V50.3l-31,35.8V39.5h5v34l31-35.9V84.1z"/>
	<path class="st4" d="M266.8,106.8h25.3v40.1h3v12h-5v-7.3h-24v7.3h-5v-12c1.4,0,2.4-0.6,3.2-1.8c0.7-1.2,1.3-3.3,1.6-6.1
		c0.4-2.9,0.6-6.6,0.7-11.3C266.7,122.9,266.8,116,266.8,106.8z M287.1,146.9v-35.4h-15.5c0,8.3-0.1,14.6-0.2,18.8
		c-0.1,4.2-0.4,7.8-0.9,10.7c-0.5,2.9-1.3,4.9-2.5,6H287.1z"/>
	<path class="st4" d="M310.8,111.4c0,1,0,2.5,0,4.4c0,1.9,0,3.2,0,4.1c0,6.5-0.1,11.7-0.3,15.7c-0.2,4-0.7,7.2-1.3,9.6
		c-0.7,2.4-1.6,4.2-2.9,5.3c-1.3,1.1-3,1.7-5.2,1.7l-1.2-4.7c1.5,0,2.6-0.5,3.4-1.4c0.8-1,1.4-2.6,1.8-4.8c0.4-2.2,0.6-5.1,0.7-8.7
		c0.1-3.5,0.2-8.8,0.2-15.7v-10h29.9v44.7h-5.6v-40.1H310.8z"/>
	<path class="st4" d="M366,131.9h-1.2l-13.5,19.6h-6.1l14.2-20c-2.3-0.2-4.3-0.8-5.9-1.9c-1.7-1.1-3-2.5-3.9-4.3
		c-0.9-1.8-1.4-3.8-1.4-6.1c0-3.2,0.7-5.7,2.2-7.5c1.5-1.8,3.4-3.1,5.8-3.8c2.4-0.7,5.2-1,8.3-1h6.5v44.7h-5V131.9z M366,111.4h-1.5
		c-1.7,0-3.3,0.1-4.6,0.3c-1.3,0.2-2.5,0.5-3.5,1.1c-1,0.5-1.9,1.4-2.4,2.4c-0.6,1.1-0.9,2.5-0.9,4.3c0,3.1,1,5.3,3.1,6.3
		c2.1,1.1,4.8,1.7,8.2,1.7h1.5V111.4z"/>
	<path class="st4" d="M271.6,178.7c0,1,0,2.5,0,4.4c0,1.9,0,3.2,0,4.1c0,6.5-0.1,11.7-0.3,15.7c-0.2,4-0.7,7.2-1.3,9.6
		c-0.7,2.4-1.6,4.2-2.9,5.3c-1.3,1.1-3,1.7-5.2,1.7l-1.2-4.7c1.5,0,2.6-0.5,3.4-1.4c0.8-1,1.4-2.6,1.8-4.8c0.4-2.2,0.6-5.1,0.7-8.7
		c0.1-3.5,0.2-8.8,0.2-15.7v-10h29.7v44.7l-5.9,0.1v-40.1L271.6,178.7z"/>
	<path class="st4" d="M320.3,196.9h-6.4v21.9h-5v-44.7h5v18.1h6.8c0.7-3.6,2.1-6.8,4.3-9.7c2.2-2.9,4.9-5.2,8.2-6.8
		c3.3-1.6,6.7-2.5,10.4-2.5c3.1,0,6.1,0.6,8.9,1.8c2.8,1.2,5.3,2.9,7.5,5c2.2,2.1,3.8,4.6,5,7.4c1.2,2.8,1.8,5.8,1.8,9
		c0,4.2-1,8.1-3.1,11.6c-2.1,3.5-4.9,6.3-8.5,8.4c-3.6,2.1-7.5,3.1-11.6,3.1c-3.1,0-6.1-0.6-8.9-1.7c-2.8-1.2-5.3-2.8-7.4-4.8
		c-2.1-2.1-3.8-4.5-5.1-7.3C321,202.9,320.3,200,320.3,196.9z M325.2,196.5c0,3.3,0.8,6.4,2.5,9.2c1.6,2.8,3.9,5.1,6.7,6.8
		c2.8,1.7,5.9,2.5,9.2,2.5c3.3,0,6.4-0.8,9.2-2.5c2.8-1.7,5-3.9,6.7-6.8c1.6-2.8,2.5-5.9,2.5-9.2c0-3.3-0.8-6.4-2.4-9.2
		c-1.6-2.8-3.8-5.1-6.7-6.8c-2.8-1.7-5.9-2.5-9.2-2.5s-6.4,0.8-9.2,2.5c-2.8,1.7-5,3.9-6.7,6.7C326.1,190.1,325.2,193.1,325.2,196.5
		z"/>
	<path class="st4" d="M378.2,174.1h25.3v40.1h3v12h-5v-7.3h-24v7.3h-5v-12c1.4,0,2.4-0.6,3.2-1.8c0.7-1.2,1.3-3.3,1.6-6.1
		c0.4-2.9,0.6-6.6,0.7-11.3C378.2,190.3,378.2,183.3,378.2,174.1z M398.5,214.2v-35.4h-15.5c0,8.3-0.1,14.6-0.2,18.8
		c-0.1,4.2-0.4,7.8-0.9,10.7c-0.5,2.9-1.3,4.9-2.5,6H398.5z"/>
	<path class="st4" d="M416,174.1h27.7v4.6l-21.6,0V192l21,0v4.6l-21,0v17.5l21.6,0v4.6H416V174.1z"/>
	<path class="st4" d="M491.1,218.8h-5V185l-31,35.8v-46.7h5v34l31-35.9V218.8z M467.5,166.1c1,2.7,2.9,4,5.6,4c2.7,0,4.6-1.3,5.6-4
		h4.1c-0.2,1.6-0.8,3-1.7,4.2c-0.9,1.2-2.1,2.2-3.5,2.8c-1.4,0.7-2.9,1-4.5,1c-2.5,0-4.6-0.7-6.5-2.2c-1.8-1.5-2.9-3.4-3.3-5.8
		H467.5z"/>
</g>
</svg>
